# xmcd CD database file
#
# Track frame offsets:
#	150
#	18862
#	31630
#	37055
#	46927
#	60322
#	73635
#	89872
#	99615
#	110582
#	123545
#	134517
#	150632
#	155905
#	178707
#	198435
#	214292
#	228155
#
# Disc length: 3308 seconds
#
# Revision: 0
# Processed by: cddbd v1.4PL0 Copyright (c) Steve Scherf et al.
# Submitted via: CDex 1.51
#
DISCID=fe0cea12
DTITLE=Denis Fournier - La voix des tambours
DYEAR=1900
DGENRE=Jazz
TTITLE0=La voix des tambours
TTITLE1=Ywy Mara ey
TTITLE2=Le rebelle
TTITLE3=Résistance
TTITLE4=Autoportrait
TTITLE5=Le sauvage
TTITLE6=Vent du sud
TTITLE7=Les contes de la lune après la pluie
TTITLE8=3eme round
TTITLE9=La batterie fait un bruit de machine à coudre hantée
TTITLE10=L'oeil du cyclope
TTITLE11=Paysage de fantaisie
TTITLE12=Milagro
TTITLE13=Face cachée
TTITLE14=L'air d'Albert
TTITLE15=Dans le noir du soir
TTITLE16=Le trésor sans fond
TTITLE17=Célibateur
EXTD=
EXTT0=
EXTT1=
EXTT2=
EXTT3=
EXTT4=
EXTT5=
EXTT6=
EXTT7=
EXTT8=
EXTT9=
EXTT10=
EXTT11=
EXTT12=
EXTT13=
EXTT14=
EXTT15=
EXTT16=
EXTT17=
PLAYORDER=
